<svg width="345" height="322" viewBox="0 0 345 322" fill="none" xmlns="http://www.w3.org/2000/svg">
<path d="M157.173 233.906L33.9 60.8652H311.264C329.673 63.0779 335.247 69.0914 339 86.0348C339 86.0348 329.755 189.859 326.673 211.883C323.591 233.906 311.264 233.906 311.264 233.906H157.173Z" stroke="#333446" stroke-width="10"/>
<path d="M255.791 82.8887V26.2571C251.48 8.72044 245.549 2.68295 221.891 4.23366C221.891 4.23366 187.991 4.23366 169.5 4.23366C151.009 4.23366 151.009 26.2571 151.009 26.2571V82.8887M70.8818 117.497H18.4909M95.5364 145.813H0M107.864 170.982H46.2273M123.273 196.152H30.8182" stroke="#333446" stroke-width="8"/>
<path d="M181.827 259.576C198.562 259.576 212.146 273.428 212.146 290.538C212.146 307.647 198.562 321.5 181.827 321.5C165.093 321.5 151.509 307.648 151.509 290.538C151.509 273.428 165.093 259.576 181.827 259.576Z" fill="#333446" stroke="#333446"/>
<path d="M234.218 179.966C240.74 179.966 246.045 185.367 246.045 192.051C246.045 198.735 240.74 204.136 234.218 204.136C227.696 204.136 222.391 198.735 222.391 192.051C222.391 185.367 227.696 179.966 234.218 179.966Z" fill="#333446" stroke="#333446"/>
<path d="M241.304 194.721L231.639 183.347L258.987 169.094L241.304 194.721Z" fill="#333446" stroke="#333446"/>
<path d="M280.446 259.576C297.18 259.576 310.764 273.428 310.764 290.538C310.764 307.647 297.18 321.5 280.446 321.5C263.711 321.5 250.127 307.648 250.127 290.538C250.127 273.428 263.711 259.576 280.446 259.576Z" fill="#333446" stroke="#333446"/>
<path d="M169.5 196.152C175.098 106.314 307.049 119.528 298.936 196.152" stroke="#333446" stroke-width="10"/>
</svg>
