<svg width="780" height="322" viewBox="0 0 780 322" fill="none" xmlns="http://www.w3.org/2000/svg">
<path d="M157.173 233.906L33.9 60.8652H311.264C329.673 63.0779 335.247 69.0914 339 86.0348C339 86.0348 329.755 189.859 326.673 211.883C323.591 233.906 311.264 233.906 311.264 233.906H157.173Z" stroke="#333446" stroke-width="10"/>
<path d="M255.791 82.8887V26.2571C251.48 8.72044 245.549 2.68295 221.891 4.23366C221.891 4.23366 187.991 4.23366 169.5 4.23366C151.009 4.23366 151.009 26.2571 151.009 26.2571V82.8887M70.8818 117.497H18.4909M95.5364 145.813H0M107.864 170.982H46.2273M123.273 196.152H30.8182" stroke="#333446" stroke-width="8"/>
<path d="M181.827 259.576C198.562 259.576 212.146 273.428 212.146 290.538C212.146 307.647 198.562 321.5 181.827 321.5C165.093 321.5 151.509 307.648 151.509 290.538C151.509 273.428 165.093 259.576 181.827 259.576Z" fill="#333446" stroke="#333446"/>
<path d="M234.218 179.966C240.74 179.966 246.045 185.367 246.045 192.051C246.045 198.735 240.74 204.136 234.218 204.136C227.696 204.136 222.391 198.735 222.391 192.051C222.391 185.367 227.696 179.966 234.218 179.966Z" fill="#333446" stroke="#333446"/>
<path d="M241.304 194.721L231.639 183.347L258.987 169.094L241.304 194.721Z" fill="#333446" stroke="#333446"/>
<path d="M280.446 259.576C297.18 259.576 310.764 273.428 310.764 290.538C310.764 307.647 297.18 321.5 280.446 321.5C263.711 321.5 250.127 307.648 250.127 290.538C250.127 273.428 263.711 259.576 280.446 259.576Z" fill="#333446" stroke="#333446"/>
<path d="M169.5 196.152C175.098 106.314 307.049 119.528 298.936 196.152" stroke="#333446" stroke-width="10"/>
<path d="M370.008 279.056C367.32 279.056 364.568 278.832 361.752 278.384C359 278 356.344 277.424 353.784 276.656C351.288 275.888 349.048 274.928 347.064 273.776C345.656 273.008 344.664 272.016 344.088 270.8C343.512 269.52 343.288 268.24 343.416 266.96C343.608 265.68 344.088 264.56 344.856 263.6C345.688 262.576 346.712 261.936 347.928 261.68C349.208 261.36 350.616 261.584 352.152 262.352C354.776 263.824 357.624 264.912 360.696 265.616C363.832 266.32 366.936 266.672 370.008 266.672C374.68 266.672 378.008 265.968 379.992 264.56C381.976 263.088 382.968 261.264 382.968 259.088C382.968 257.232 382.264 255.76 380.856 254.672C379.448 253.584 376.984 252.656 373.464 251.888L362.616 249.584C356.472 248.304 351.896 246.128 348.888 243.056C345.944 239.92 344.472 235.824 344.472 230.768C344.472 227.568 345.144 224.656 346.488 222.032C347.832 219.408 349.72 217.136 352.152 215.216C354.584 213.296 357.464 211.824 360.792 210.8C364.184 209.776 367.896 209.264 371.928 209.264C375.512 209.264 379.032 209.712 382.488 210.608C385.944 211.44 388.984 212.688 391.608 214.352C392.888 215.12 393.752 216.112 394.2 217.328C394.712 218.48 394.872 219.664 394.68 220.88C394.552 222.032 394.072 223.056 393.24 223.952C392.472 224.848 391.48 225.424 390.264 225.68C389.048 225.936 387.576 225.648 385.848 224.816C383.736 223.728 381.496 222.928 379.128 222.416C376.76 221.904 374.328 221.648 371.832 221.648C369.144 221.648 366.84 222 364.92 222.704C363.064 223.408 361.624 224.4 360.6 225.68C359.64 226.96 359.16 228.432 359.16 230.096C359.16 231.952 359.832 233.456 361.176 234.608C362.52 235.76 364.856 236.688 368.184 237.392L379.032 239.696C385.304 241.04 389.976 243.216 393.048 246.224C396.12 249.168 397.656 253.072 397.656 257.936C397.656 261.136 397.016 264.048 395.736 266.672C394.456 269.232 392.6 271.44 390.168 273.296C387.736 275.152 384.824 276.592 381.432 277.616C378.04 278.576 374.232 279.056 370.008 279.056ZM424.616 278.864C422.696 278.864 421.064 278.416 419.72 277.52C418.376 276.56 417.288 275.056 416.456 273.008L402.92 239.504C402.216 237.712 401.992 236.144 402.248 234.8C402.504 233.392 403.176 232.272 404.264 231.44C405.416 230.544 406.984 230.096 408.968 230.096C410.632 230.096 412.008 230.512 413.096 231.344C414.184 232.112 415.112 233.616 415.88 235.856L426.44 263.984H424.232L435.176 234.608C435.688 233.072 436.424 231.952 437.384 231.248C438.408 230.48 439.72 230.096 441.32 230.096C442.92 230.096 444.2 230.48 445.16 231.248C446.184 232.016 446.984 233.136 447.56 234.608L458.312 263.984H456.488L466.952 235.472C467.72 233.424 468.712 232.016 469.928 231.248C471.144 230.48 472.456 230.096 473.864 230.096C475.656 230.096 477.032 230.544 477.992 231.44C479.016 232.336 479.592 233.488 479.72 234.896C479.912 236.304 479.656 237.84 478.952 239.504L465.512 273.008C464.744 274.992 463.656 276.464 462.248 277.424C460.904 278.384 459.272 278.864 457.352 278.864C455.496 278.864 453.864 278.384 452.456 277.424C451.112 276.464 450.024 274.992 449.192 273.008L437.672 243.056H443.912L432.68 272.912C431.912 274.896 430.856 276.4 429.512 277.424C428.168 278.384 426.536 278.864 424.616 278.864ZM495.208 278.768C492.84 278.768 491.016 278.096 489.736 276.752C488.52 275.344 487.912 273.392 487.912 270.896V238.064C487.912 235.504 488.52 233.552 489.736 232.208C491.016 230.8 492.84 230.096 495.208 230.096C497.512 230.096 499.272 230.8 500.488 232.208C501.768 233.552 502.408 235.504 502.408 238.064V270.896C502.408 273.392 501.8 275.344 500.584 276.752C499.368 278.096 497.576 278.768 495.208 278.768ZM495.208 222.224C492.52 222.224 490.44 221.616 488.968 220.4C487.56 219.12 486.856 217.328 486.856 215.024C486.856 212.656 487.56 210.864 488.968 209.648C490.44 208.368 492.52 207.728 495.208 207.728C497.896 207.728 499.944 208.368 501.352 209.648C502.76 210.864 503.464 212.656 503.464 215.024C503.464 217.328 502.76 219.12 501.352 220.4C499.944 221.616 497.896 222.224 495.208 222.224ZM524.543 278.864C522.175 278.864 520.351 278.224 519.071 276.944C517.855 275.664 517.247 273.84 517.247 271.472V241.712H513.791C511.999 241.712 510.591 241.232 509.567 240.272C508.607 239.312 508.127 238 508.127 236.336C508.127 234.544 508.607 233.2 509.567 232.304C510.591 231.344 511.999 230.864 513.791 230.864H521.471L517.247 234.704V231.728C517.247 224.88 518.943 219.76 522.335 216.368C525.791 212.976 530.847 210.928 537.503 210.224L540.575 209.936C542.239 209.808 543.551 210.064 544.511 210.704C545.535 211.344 546.207 212.176 546.527 213.2C546.847 214.224 546.911 215.28 546.719 216.368C546.527 217.392 546.079 218.32 545.375 219.152C544.735 219.92 543.839 220.336 542.687 220.4L541.343 220.496C537.887 220.752 535.423 221.584 533.951 222.992C532.479 224.336 531.743 226.416 531.743 229.232V232.496L529.919 230.864H538.559C540.415 230.864 541.823 231.344 542.783 232.304C543.743 233.2 544.223 234.544 544.223 236.336C544.223 238 543.743 239.312 542.783 240.272C541.823 241.232 540.415 241.712 538.559 241.712H531.743V271.472C531.743 276.4 529.343 278.864 524.543 278.864ZM570.579 279.056C566.163 279.056 562.451 278.32 559.443 276.848C556.499 275.376 554.291 273.232 552.819 270.416C551.411 267.6 550.707 264.048 550.707 259.76V241.712H546.675C544.883 241.712 543.475 241.232 542.451 240.272C541.491 239.312 541.011 238 541.011 236.336C541.011 234.544 541.491 233.2 542.451 232.304C543.475 231.344 544.883 230.864 546.675 230.864H550.707V223.568C550.707 221.136 551.347 219.312 552.627 218.096C553.907 216.816 555.699 216.176 558.003 216.176C560.371 216.176 562.163 216.816 563.379 218.096C564.595 219.312 565.203 221.136 565.203 223.568V230.864H574.323C576.115 230.864 577.491 231.344 578.451 232.304C579.411 233.2 579.891 234.544 579.891 236.336C579.891 238 579.411 239.312 578.451 240.272C577.491 241.232 576.115 241.712 574.323 241.712H565.203V259.184C565.203 261.872 565.811 263.888 567.027 265.232C568.307 266.576 570.323 267.248 573.075 267.248C574.035 267.248 574.931 267.152 575.763 266.96C576.595 266.768 577.363 266.64 578.067 266.576C578.963 266.512 579.699 266.8 580.275 267.44C580.851 268.016 581.139 269.328 581.139 271.376C581.139 272.912 580.883 274.256 580.371 275.408C579.859 276.56 578.963 277.392 577.683 277.904C576.851 278.224 575.699 278.48 574.227 278.672C572.819 278.928 571.603 279.056 570.579 279.056ZM620.336 279.056C613.04 279.056 606.8 277.616 601.616 274.736C596.432 271.856 592.432 267.824 589.616 262.64C586.864 257.392 585.488 251.216 585.488 244.112C585.488 238.8 586.256 234.032 587.792 229.808C589.392 225.52 591.696 221.872 594.704 218.864C597.712 215.792 601.36 213.424 605.648 211.76C610 210.096 614.896 209.264 620.336 209.264C623.536 209.264 626.768 209.68 630.031 210.512C633.36 211.28 636.24 212.4 638.672 213.872C640.272 214.768 641.36 215.888 641.936 217.232C642.512 218.576 642.672 219.92 642.416 221.264C642.224 222.608 641.68 223.76 640.784 224.72C639.952 225.68 638.896 226.288 637.616 226.544C636.336 226.8 634.896 226.512 633.296 225.68C631.376 224.528 629.36 223.696 627.248 223.184C625.136 222.672 622.992 222.416 620.816 222.416C616.528 222.416 612.912 223.28 609.968 225.008C607.088 226.672 604.912 229.104 603.44 232.304C601.968 235.504 601.232 239.44 601.232 244.112C601.232 248.72 601.968 252.656 603.44 255.92C604.912 259.184 607.088 261.68 609.968 263.408C612.912 265.072 616.528 265.904 620.816 265.904C622.864 265.904 624.944 265.648 627.056 265.136C629.232 264.624 631.312 263.824 633.296 262.736C634.96 261.904 636.432 261.616 637.712 261.872C639.056 262.064 640.144 262.64 640.976 263.6C641.872 264.496 642.416 265.584 642.608 266.864C642.864 268.144 642.736 269.424 642.224 270.704C641.712 271.984 640.752 273.072 639.344 273.968C636.976 275.568 634.064 276.816 630.608 277.712C627.152 278.608 623.728 279.056 620.336 279.056ZM666.035 279.056C662.579 279.056 659.475 278.384 656.723 277.04C653.971 275.696 651.827 273.872 650.291 271.568C648.755 269.264 647.987 266.672 647.987 263.792C647.987 260.336 648.883 257.616 650.675 255.632C652.467 253.584 655.379 252.144 659.411 251.312C663.443 250.416 668.787 249.968 675.443 249.968H680.531V257.456H675.539C672.275 257.456 669.619 257.648 667.571 258.032C665.587 258.352 664.147 258.928 663.251 259.76C662.419 260.592 662.003 261.744 662.003 263.216C662.003 265.008 662.611 266.48 663.827 267.632C665.107 268.784 666.931 269.36 669.299 269.36C671.155 269.36 672.787 268.944 674.195 268.112C675.667 267.216 676.819 266.032 677.651 264.56C678.483 263.024 678.899 261.296 678.899 259.376V248.336C678.899 245.52 678.259 243.536 676.979 242.384C675.699 241.168 673.523 240.56 670.451 240.56C668.723 240.56 666.835 240.784 664.787 241.232C662.803 241.616 660.595 242.288 658.163 243.248C656.755 243.888 655.507 244.048 654.419 243.728C653.331 243.344 652.499 242.704 651.923 241.808C651.347 240.848 651.059 239.824 651.059 238.736C651.059 237.584 651.379 236.496 652.019 235.472C652.659 234.384 653.715 233.584 655.187 233.072C658.195 231.856 661.011 231.024 663.635 230.576C666.323 230.128 668.787 229.904 671.027 229.904C675.955 229.904 679.987 230.64 683.123 232.112C686.323 233.52 688.723 235.728 690.323 238.736C691.923 241.68 692.723 245.488 692.723 250.16V271.472C692.723 273.84 692.147 275.664 690.995 276.944C689.843 278.224 688.179 278.864 686.003 278.864C683.827 278.864 682.131 278.224 680.915 276.944C679.763 275.664 679.187 273.84 679.187 271.472V267.92L679.859 268.496C679.475 270.672 678.643 272.56 677.363 274.16C676.147 275.696 674.579 276.912 672.659 277.808C670.739 278.64 668.531 279.056 666.035 279.056ZM711.025 278.864C708.593 278.864 706.737 278.224 705.457 276.944C704.177 275.664 703.537 273.84 703.537 271.472V237.392C703.537 235.024 704.145 233.232 705.361 232.016C706.641 230.736 708.401 230.096 710.641 230.096C712.945 230.096 714.705 230.736 715.921 232.016C717.137 233.232 717.745 235.024 717.745 237.392V242.384H716.785C717.553 238.544 719.249 235.568 721.873 233.456C724.497 231.344 727.889 230.16 732.049 229.904C733.649 229.776 734.865 230.192 735.697 231.152C736.593 232.048 737.073 233.552 737.137 235.664C737.265 237.648 736.849 239.216 735.889 240.368C734.993 241.52 733.457 242.224 731.281 242.48L729.073 242.672C725.425 242.992 722.705 244.048 720.913 245.84C719.185 247.632 718.321 250.224 718.321 253.616V271.472C718.321 273.84 717.681 275.664 716.401 276.944C715.185 278.224 713.393 278.864 711.025 278.864ZM769.048 279.056C764.632 279.056 760.92 278.32 757.912 276.848C754.968 275.376 752.76 273.232 751.288 270.416C749.88 267.6 749.176 264.048 749.176 259.76V241.712H745.144C743.352 241.712 741.944 241.232 740.92 240.272C739.96 239.312 739.48 238 739.48 236.336C739.48 234.544 739.96 233.2 740.92 232.304C741.944 231.344 743.352 230.864 745.144 230.864H749.176V223.568C749.176 221.136 749.816 219.312 751.096 218.096C752.376 216.816 754.168 216.176 756.472 216.176C758.84 216.176 760.632 216.816 761.848 218.096C763.064 219.312 763.672 221.136 763.672 223.568V230.864H772.792C774.584 230.864 775.96 231.344 776.92 232.304C777.88 233.2 778.36 234.544 778.36 236.336C778.36 238 777.88 239.312 776.92 240.272C775.96 241.232 774.584 241.712 772.792 241.712H763.672V259.184C763.672 261.872 764.28 263.888 765.496 265.232C766.776 266.576 768.792 267.248 771.544 267.248C772.504 267.248 773.4 267.152 774.232 266.96C775.064 266.768 775.832 266.64 776.536 266.576C777.432 266.512 778.168 266.8 778.744 267.44C779.32 268.016 779.608 269.328 779.608 271.376C779.608 272.912 779.352 274.256 778.84 275.408C778.328 276.56 777.432 277.392 776.152 277.904C775.32 278.224 774.168 278.48 772.696 278.672C771.288 278.928 770.072 279.056 769.048 279.056Z" fill="#333446"/>
</svg>
